<?xml version="1.0" standalone="no"?>
<!DOCTYPE svg PUBLIC "-//W3C//DTD SVG 20010904//EN"
 "http://www.w3.org/TR/2001/REC-SVG-20010904/DTD/svg10.dtd">
<svg version="1.0" xmlns="http://www.w3.org/2000/svg"
 width="1776.000000pt" height="1776.000000pt" viewBox="0 0 1776.000000 1776.000000"
 preserveAspectRatio="xMidYMid meet">
<metadata>
Created by potrace 1.14, written by Peter Selinger 2001-2017
</metadata>
<g transform="translate(0.000000,1776.000000) scale(0.100000,-0.100000)"
fill="#000000" stroke="none">
<path d="M624 13425 c-3 -14 -10 -25 -15 -25 -5 0 -9 -6 -9 -14 0 -7 -9 -25
-20 -39 -11 -14 -20 -32 -20 -40 0 -9 -4 -17 -8 -19 -8 -3 -173 -333 -176
-353 -1 -5 -7 -20 -14 -31 -6 -12 -8 -24 -5 -28 3 -3 2 -6 -4 -6 -6 0 -14 -12
-18 -27 -3 -15 -16 -48 -27 -72 -11 -25 -21 -50 -22 -56 -1 -5 -4 -14 -7 -20
-4 -5 -14 -35 -24 -65 -10 -30 -22 -61 -28 -67 -5 -7 -7 -13 -4 -13 3 0 -6
-33 -20 -72 -13 -40 -26 -82 -29 -92 -2 -11 -10 -40 -18 -65 -21 -66 -72 -286
-91 -396 -2 -16 -7 -41 -10 -55 -3 -14 -7 -38 -10 -55 -2 -16 -6 -52 -10 -80
-3 -27 -8 -60 -10 -71 -20 -118 -28 -693 -12 -869 9 -99 17 -169 22 -173 5 -5
5564 -4 5572 1 5 3 8 639 8 1414 l0 1408 -2492 3 -2493 2 -6 -25z"/>
<path d="M12379 13061 c-27 -13 -51 -32 -55 -43 -3 -10 -9 -18 -13 -18 -11 0
-24 -53 -27 -110 -1 -25 -2 -48 -3 -52 -1 -5 -24 -8 -51 -8 -55 0 -67 -11 -56
-55 6 -22 10 -24 56 -21 l50 2 1 -35 c0 -20 1 -122 1 -228 l0 -192 46 2 47 2
1 215 c1 118 2 220 3 225 1 6 29 10 69 10 l67 0 3 38 3 37 -74 0 -74 0 4 43
c6 66 11 82 33 107 11 13 20 20 20 15 0 -4 6 -3 13 2 15 13 78 13 94 1 14 -11
23 2 29 41 6 35 -10 43 -84 45 -38 1 -67 -6 -103 -23z"/>
<path d="M7878 13018 c-25 -31 -22 -55 8 -83 22 -20 29 -22 55 -13 54 19 62
90 12 109 -37 14 -56 11 -75 -13z"/>
<path d="M10159 13013 c-25 -46 -9 -79 46 -93 28 -8 65 27 65 61 0 57 -85 81
-111 32z"/>
<path d="M10538 13014 c-21 -7 -39 -10 -40 -6 -1 4 -4 -33 -7 -83 l-6 -90 -53
-3 -53 -3 3 -37 3 -37 50 0 50 0 2 -183 c3 -204 12 -244 66 -267 23 -10 103
-13 165 -6 7 0 12 16 12 40 l0 39 -55 -1 c-86 -1 -89 3 -91 190 -1 87 0 165 2
174 3 12 18 15 72 15 l67 -1 3 38 3 37 -69 0 c-47 0 -71 4 -74 13 -3 6 -4 49
-4 95 1 46 -1 85 -4 86 -3 2 -22 -2 -42 -10z"/>
<path d="M6477 12748 c1 -293 7 -334 56 -386 45 -49 103 -67 212 -67 86 0 107
4 148 25 27 13 62 40 77 60 48 61 56 118 56 390 l-1 245 -46 3 -45 3 -1 -259
c-1 -239 -3 -263 -22 -306 -17 -38 -28 -50 -68 -67 -63 -27 -158 -22 -206 11
-59 41 -62 57 -62 352 l0 268 -50 0 -50 0 2 -272z"/>
<path d="M7424 12825 c-10 -5 -38 -29 -60 -52 l-42 -42 5 50 4 49 -46 0 c-40
0 -45 -3 -46 -22 0 -29 0 -467 0 -490 1 -15 10 -18 49 -18 l47 0 1 163 c0 149
2 167 22 206 36 69 69 91 131 87 78 -6 83 -20 85 -274 l1 -177 45 0 45 0 1
202 c1 225 -6 262 -55 304 -27 22 -40 25 -100 25 -37 0 -77 -5 -87 -11z"/>
<path d="M7921 12830 l-45 -5 0 -260 0 -260 47 -3 47 -3 1 68 c1 167 -1 466
-3 467 -2 1 -23 -1 -47 -4z"/>
<path d="M8110 12819 c0 -9 9 -38 19 -65 11 -27 29 -76 41 -109 12 -33 31 -82
42 -110 11 -27 21 -54 23 -60 1 -5 5 -17 8 -25 4 -8 17 -44 30 -80 l24 -65 50
-3 50 -3 21 56 c12 31 22 63 22 71 0 8 5 14 12 14 6 0 9 3 5 6 -3 3 3 25 13
49 10 24 16 46 13 49 -4 3 -1 6 5 6 7 0 12 6 12 13 0 13 65 191 81 219 20 38
11 48 -39 48 l-48 0 -19 -57 c-10 -32 -22 -62 -26 -68 -4 -5 -14 -32 -22 -60
-9 -27 -25 -77 -37 -110 -12 -33 -24 -69 -26 -79 -2 -11 -9 -24 -15 -30 -9 -8
-10 -6 -6 7 4 10 2 17 -5 17 -6 0 -9 3 -5 6 5 5 -26 105 -53 169 -9 22 -70
196 -70 200 0 2 -23 5 -50 7 -41 2 -50 0 -50 -13z"/>
<path d="M8830 12830 c-8 -5 -18 -6 -22 -4 -4 3 -8 0 -8 -5 0 -6 -6 -11 -13
-11 -18 0 -71 -57 -92 -100 -23 -45 -27 -68 -27 -165 0 -181 98 -266 287 -250
91 7 135 26 131 57 -4 43 -13 48 -54 34 -48 -16 -140 -20 -175 -7 -56 22 -83
63 -93 140 -5 39 -3 51 7 52 8 0 79 0 159 0 79 -1 152 1 161 4 19 6 22 40 8
103 -13 61 -51 116 -95 137 -41 19 -151 29 -174 15z m122 -76 c30 -15 62 -72
56 -101 -3 -19 -44 -24 -85 -11 -13 4 -23 4 -23 0 0 -4 -15 -6 -32 -5 -18 1
-48 2 -65 2 -39 1 -43 20 -14 68 34 55 105 76 163 47z"/>
<path d="M9288 12825 c-10 -8 -13 -64 -13 -265 0 -232 2 -255 17 -255 9 0 19
-3 23 -6 3 -3 17 -4 30 -1 25 4 25 5 26 126 1 141 5 188 20 234 11 33 51 81
69 83 6 1 15 3 20 4 6 1 20 3 33 4 21 1 24 6 24 47 l1 46 -38 -5 c-45 -5 -98
-40 -110 -73 -15 -38 -27 -28 -24 20 4 43 3 44 -30 48 -19 2 -41 -1 -48 -7z"/>
<path d="M9740 12816 c-51 -26 -79 -59 -88 -107 -18 -87 22 -139 138 -178 39
-14 78 -34 86 -45 27 -39 14 -77 -35 -104 -25 -15 -135 -15 -163 0 -14 7 -18
4 -19 -9 -1 -10 -3 -28 -4 -41 -3 -33 30 -43 121 -38 155 8 239 97 203 215 -7
23 -41 61 -56 61 -7 0 -13 3 -13 8 0 4 -28 16 -62 27 -73 23 -96 41 -102 78
-3 20 2 35 20 54 21 23 31 26 87 25 34 0 71 -2 81 -4 16 -2 20 3 21 30 0 18
-3 36 -8 39 -5 3 -44 7 -87 8 -62 2 -85 -1 -120 -19z"/>
<path d="M11784 12822 c-59 -21 -107 -66 -137 -132 -17 -35 -21 -65 -22 -135
0 -49 4 -99 9 -110 5 -11 10 -26 12 -32 5 -26 51 -73 90 -93 86 -43 210 -32
274 23 23 20 74 85 76 97 0 3 6 25 13 50 12 41 11 145 -2 195 -11 44 -51 97
-92 121 -58 34 -151 40 -221 16z m168 -89 c39 -35 56 -84 56 -163 0 -118 -41
-182 -123 -195 -22 -4 -53 -1 -69 5 -28 10 -75 52 -77 68 0 4 -3 16 -6 27 -3
11 -6 51 -8 89 -3 94 20 146 80 179 38 22 119 16 147 -10z"/>
<path d="M10163 12816 c3 -7 0 -19 -6 -25 -6 -6 -7 -11 -1 -11 11 0 11 -131 0
-149 -4 -6 -4 -11 1 -11 10 0 9 -162 -1 -178 -4 -7 -3 -12 1 -12 5 0 8 -28 8
-62 l0 -63 46 -3 45 -3 1 266 0 265 -50 0 c-38 0 -48 -3 -44 -14z"/>
<path d="M10839 12753 c16 -43 43 -116 61 -163 17 -47 41 -110 52 -140 11 -30
27 -71 36 -90 22 -51 19 -79 -17 -153 -38 -78 -57 -92 -126 -92 l-50 0 -6 -38
c-3 -21 -2 -40 2 -43 19 -11 123 1 159 19 45 22 85 80 125 182 15 39 30 75 33
80 4 6 8 19 9 29 2 11 10 33 18 49 8 17 15 34 15 39 0 7 14 45 75 203 5 11 9
25 11 30 9 34 30 81 39 87 6 4 7 8 2 8 -4 0 -1 13 7 29 9 16 12 31 9 35 -4 3
-28 6 -54 6 -49 0 -47 3 -64 -62 -2 -5 -3 -9 -5 -10 -1 -2 -3 -10 -5 -18 -3
-8 -21 -60 -41 -115 -19 -55 -38 -110 -40 -122 -5 -28 -22 -73 -27 -73 -2 0
-4 6 -4 13 0 11 -51 159 -73 212 -4 11 -15 43 -25 70 -37 112 -32 105 -91 105
l-53 0 28 -77z"/>
<path d="M8367 11873 c-3 -7 -2 -726 2 -761 1 -9 14 -12 44 -10 l42 3 2 388 2
387 -44 0 c-24 0 -46 -3 -48 -7z"/>
<path d="M9828 11868 c-2 -7 -4 -61 -3 -120 1 -60 -1 -108 -5 -109 -3 0 -39
-2 -80 -3 -87 -2 -152 -27 -199 -76 -93 -98 -99 -327 -10 -418 39 -40 116 -59
175 -43 46 12 128 77 118 93 -4 6 -2 8 4 4 9 -5 8 -22 -1 -80 -2 -11 48 -18
78 -11 15 3 20 12 20 35 0 16 -4 30 -8 30 -4 0 -3 9 3 19 7 13 7 22 0 26 -7 4
-7 12 0 25 7 13 7 21 0 25 -7 4 -7 13 0 26 6 10 7 19 2 19 -5 0 -6 17 -2 39 4
21 3 46 -2 54 -5 9 -4 18 1 22 7 4 7 15 1 30 -6 16 -6 25 0 25 6 0 6 9 1 23
-5 13 -5 30 0 39 6 11 5 19 -1 23 -7 4 -7 12 0 25 7 13 7 21 0 25 -7 4 -7 12
0 25 7 13 7 21 0 25 -7 4 -7 13 0 26 7 12 7 19 1 19 -7 0 -7 9 -1 25 6 16 6
25 0 25 -6 0 -6 9 0 25 6 17 6 25 -1 25 -6 0 -7 6 -1 16 18 33 3 51 -43 52
-27 1 -44 -3 -47 -10z m-78 -311 c0 7 6 11 13 9 6 -3 24 -7 38 -10 l26 -6 -2
-112 c-2 -111 -16 -178 -42 -206 -7 -7 -13 -17 -13 -21 0 -4 -17 -16 -38 -25
-66 -30 -127 -4 -153 63 -19 49 -12 189 13 234 15 30 58 67 82 72 49 10 61 10
68 0 5 -6 8 -6 8 2z"/>
<path d="M8689 11838 c-37 -12 -50 -46 -33 -86 10 -25 19 -32 42 -32 38 0 61
19 67 55 9 47 -30 79 -76 63z"/>
<path d="M11430 11842 c-40 -14 -54 -84 -22 -108 44 -34 102 -4 102 52 0 24
-7 33 -32 46 -18 8 -40 13 -48 10z"/>
<path d="M10480 11814 c-64 -20 -124 -78 -138 -134 -21 -89 11 -160 94 -211
32 -20 61 -36 64 -36 12 2 80 -28 80 -36 0 -4 4 -6 9 -3 13 8 61 -44 63 -68 5
-72 -14 -111 -65 -131 -40 -16 -145 -24 -164 -12 -6 4 -24 9 -41 12 l-32 5 0
-45 c0 -40 3 -45 28 -52 38 -11 192 -8 222 4 14 6 28 11 33 12 8 1 18 8 58 43
62 55 84 166 45 234 -27 47 -53 66 -150 108 -110 48 -149 82 -149 128 0 46 25
84 66 102 33 14 157 15 190 1 11 -5 17 -3 18 6 0 8 2 25 5 38 3 14 -2 28 -12
36 -23 16 -169 16 -224 -1z"/>
<path d="M6620 11717 c-18 -56 -40 -115 -48 -130 -7 -16 -15 -36 -17 -45 -9
-42 -61 -178 -70 -184 -5 -4 -7 -8 -3 -8 6 0 -31 -114 -44 -135 -3 -5 -10 -26
-16 -45 -5 -19 -13 -43 -17 -52 -6 -16 -1 -18 38 -18 46 0 64 12 70 46 2 10 8
28 14 39 6 11 14 35 18 53 l7 32 153 0 153 0 22 -62 c40 -116 34 -108 91 -108
l51 0 -7 33 c-4 17 -10 37 -14 42 -4 6 -13 28 -20 50 -13 42 -27 78 -42 107
-5 10 -9 27 -9 37 0 11 -4 22 -9 25 -5 3 -11 16 -14 28 -2 13 -17 55 -32 93
-14 39 -27 75 -29 80 -1 6 -14 42 -28 80 -15 39 -32 87 -39 108 -13 37 -13 37
-69 37 l-55 0 -35 -103z m115 -97 c9 -30 20 -64 24 -75 5 -11 19 -47 31 -80
12 -33 26 -70 31 -82 12 -33 -2 -37 -127 -37 l-111 -1 8 25 c10 34 48 141 56
160 3 8 7 20 9 25 2 6 10 28 18 50 8 22 15 49 16 61 0 27 11 38 22 22 4 -7 15
-38 23 -68z"/>
<path d="M8000 11640 c0 -5 -7 -7 -15 -4 -8 3 -20 2 -27 -2 -7 -5 -15 -9 -18
-9 -12 -2 -64 -34 -55 -35 6 0 6 -3 -1 -8 -5 -4 -17 -17 -26 -30 -15 -22 -15
-21 -14 25 l1 48 -45 0 -45 0 0 -389 c0 -373 0 -389 19 -395 10 -4 28 -6 40
-5 11 1 27 3 35 3 10 1 11 4 2 14 -6 8 -8 16 -5 19 3 4 5 56 5 116 l0 110 72
0 c40 0 82 3 93 5 41 10 102 47 123 74 11 15 25 33 30 39 39 47 49 234 17 309
-27 63 -85 113 -126 110 -8 -1 -25 2 -37 7 -13 4 -23 4 -23 -2z m43 -91 c74
-34 90 -231 25 -322 -35 -49 -111 -66 -216 -48 -1 1 -2 54 -1 119 3 133 20
189 71 235 33 29 79 35 121 16z"/>
<path d="M7347 11633 c-15 -2 -46 -22 -68 -44 -22 -21 -41 -39 -43 -39 -2 0
-3 17 -2 38 1 36 0 37 -38 40 -21 2 -42 -1 -45 -6 -8 -14 -6 -770 2 -778 8 -8
87 -11 88 -4 5 32 4 50 -3 50 -5 0 -6 5 -3 11 4 6 7 55 8 109 l0 98 26 -8 c14
-3 45 -6 69 -5 147 7 246 100 256 241 2 29 7 57 10 62 3 5 2 12 -1 16 -4 4 -8
22 -9 42 -2 53 -40 126 -80 153 -36 25 -106 35 -167 24z m55 -77 c5 5 68 -22
68 -29 0 -1 9 -26 19 -55 11 -28 15 -52 11 -52 -5 0 -6 -10 -3 -22 8 -34 6
-54 -11 -111 -24 -83 -77 -120 -165 -116 -51 2 -85 15 -76 30 4 5 1 9 -5 9 -6
0 -9 4 -5 9 3 5 8 56 10 113 7 129 7 128 17 128 4 0 8 6 8 14 0 38 90 105 116
85 6 -5 13 -6 16 -3z"/>
<path d="M9055 11625 c-57 -25 -117 -94 -131 -152 -10 -39 -14 -195 -6 -207 4
-6 7 -14 8 -18 1 -5 2 -9 4 -10 1 -2 3 -11 5 -20 8 -44 73 -98 138 -116 72
-20 239 1 259 31 4 6 3 18 -1 26 -5 9 -6 22 -4 29 5 13 -22 10 -72 -8 -11 -4
-48 -8 -83 -8 -47 0 -70 5 -94 22 -30 20 -74 83 -64 93 2 2 1 17 -4 32 -15 52
-6 54 174 53 l166 -1 0 47 c0 96 -44 177 -110 204 -38 16 -151 18 -185 3z
m133 -67 c7 -7 12 -9 12 -4 0 13 27 -18 42 -49 21 -45 17 -60 -17 -62 -42 -3
-148 -5 -160 -3 -5 1 -19 3 -30 4 -21 1 -22 12 -4 56 21 54 123 92 157 58z"/>
<path d="M11050 11628 c-19 -5 -42 -16 -51 -24 -8 -8 -19 -14 -23 -14 -24 0
-81 -100 -92 -160 -16 -87 -2 -196 30 -245 23 -36 76 -71 123 -82 60 -15 183
-4 210 18 10 9 11 64 1 75 -2 2 -26 -2 -53 -9 -148 -37 -224 33 -217 201 4 85
48 148 118 170 19 5 32 7 30 4 -2 -4 15 -7 37 -8 23 0 52 -3 63 -7 20 -7 22
-4 26 33 2 23 0 44 -4 47 -17 10 -164 11 -198 1z"/>
<path d="M11784 11615 c-92 -46 -134 -136 -129 -277 4 -127 56 -208 150 -233
37 -10 175 -15 175 -6 0 3 13 7 30 8 49 4 71 20 61 46 -4 12 -6 28 -3 36 4 11
-1 12 -19 7 -113 -36 -201 -31 -248 13 -32 30 -55 91 -49 135 l3 28 168 -1
c186 -2 171 -8 167 70 -3 77 -28 128 -80 164 -59 41 -157 45 -226 10z m176
-76 c16 -16 30 -34 31 -41 0 -7 2 -24 5 -37 4 -21 1 -23 -26 -19 -16 3 -30 1
-30 -4 0 -5 -4 -6 -10 -3 -5 3 -48 6 -95 7 -47 0 -85 2 -85 3 0 16 34 75 52
91 30 28 45 33 90 31 26 0 47 -10 68 -28z"/>
<path d="M12445 11626 c-35 -16 -76 -52 -94 -81 -10 -17 -11 -12 -7 33 l4 52
-47 0 -48 0 1 -262 1 -263 45 0 45 0 3 150 c3 208 23 261 111 298 45 19 99 4
114 -32 6 -16 11 -105 12 -221 l1 -195 47 -3 c26 -2 47 1 48 5 4 67 0 380 -5
413 -8 50 -41 95 -81 110 -37 14 -115 12 -150 -4z"/>
<path d="M13016 11628 c-57 -12 -135 -73 -136 -105 0 -7 -4 -13 -9 -13 -5 0
-14 -21 -21 -47 -17 -63 -18 -67 -5 -75 7 -5 7 -8 0 -8 -6 0 -10 -19 -9 -42 1
-24 2 -43 3 -43 1 0 4 -15 7 -34 17 -132 160 -198 327 -152 41 12 45 16 42 40
-2 14 -4 31 -4 38 -1 6 -9 10 -18 8 -94 -22 -107 -23 -159 -11 -124 29 -133
297 -12 359 20 10 45 18 55 18 18 0 90 -8 115 -13 9 -2 14 12 16 40 4 47 11
43 -98 47 -30 1 -72 -2 -94 -7z"/>
<path d="M13466 11628 c-66 -24 -129 -99 -142 -173 -17 -86 -8 -182 23 -256
14 -33 80 -86 119 -95 55 -13 157 -11 213 3 56 14 57 15 56 49 -1 19 -4 36 -6
39 -3 2 -26 -2 -51 -10 -52 -15 -149 -14 -189 3 -35 14 -69 75 -75 133 l-5 49
33 1 c18 0 95 1 171 0 102 -1 137 2 139 12 0 6 2 17 2 22 1 6 5 16 10 24 7 10
6 12 -4 6 -8 -5 -11 -3 -8 6 8 23 -22 110 -46 134 -45 45 -75 58 -144 60 -37
2 -80 -2 -96 -7z m140 -77 c38 -23 63 -83 44 -106 -6 -8 -17 -12 -23 -9 -18 6
-137 10 -137 4 0 -4 -16 -4 -36 -2 -34 4 -36 6 -30 35 16 81 111 121 182 78z"/>
<path d="M13994 11626 c-38 -13 -87 -53 -101 -81 -15 -30 -13 -106 5 -137 16
-28 79 -64 130 -74 18 -4 32 -10 32 -15 0 -5 6 -9 14 -9 8 0 24 -12 35 -26 17
-22 18 -29 8 -52 -23 -53 -34 -57 -136 -56 l-96 0 1 -35 c1 -29 6 -36 27 -42
41 -11 159 -3 199 14 37 15 97 68 99 87 1 6 2 14 3 19 0 5 4 12 7 16 4 3 3 21
-1 40 -4 19 -6 36 -3 38 9 10 -80 75 -119 87 -87 27 -123 52 -113 78 2 6 0 12
-5 12 -11 0 -1 30 17 48 26 26 103 35 174 20 10 -2 15 9 17 35 2 20 0 38 -5
38 -40 8 -164 4 -189 -5z"/>
<path d="M8662 11605 c3 -14 2 -27 -2 -30 -3 -2 -4 -26 0 -53 3 -27 3 -58 -1
-68 -3 -11 -3 -27 2 -36 6 -10 5 -19 -1 -23 -6 -3 -6 -15 0 -30 5 -13 6 -26 1
-29 -4 -3 -5 -27 -1 -55 3 -27 3 -58 -1 -68 -4 -11 -3 -26 1 -34 5 -7 5 -18 1
-24 -5 -5 -5 -20 0 -33 8 -20 15 -23 51 -20 l43 3 0 263 0 262 -49 0 c-46 0
-48 -1 -44 -25z"/>
<path d="M11403 11616 c3 -7 0 -19 -6 -25 -6 -6 -7 -11 -1 -11 5 0 9 -29 9
-65 0 -36 -4 -65 -8 -65 -5 0 -5 -5 -1 -11 9 -16 11 -189 1 -189 -5 0 -5 -5
-1 -11 10 -17 11 -109 1 -109 -5 0 -4 -7 3 -15 7 -9 29 -15 54 -15 l42 0 0
265 0 265 -49 0 c-38 0 -48 -3 -44 -14z"/>
<path d="M87 10271 c4 -20 7 -46 7 -58 1 -13 3 -23 6 -23 3 0 7 -10 8 -22 2
-24 10 -63 12 -63 2 0 72 -270 74 -287 1 -10 5 -21 9 -24 4 -4 7 -16 7 -26 0
-10 5 -18 11 -18 5 0 8 -4 5 -9 -6 -9 51 -184 112 -341 20 -52 37 -97 37 -100
1 -7 63 -155 91 -218 13 -29 24 -54 24 -57 0 -2 15 -36 34 -77 18 -40 48 -107
66 -148 62 -144 131 -293 166 -361 13 -25 21 -49 17 -53 -3 -3 -1 -6 5 -6 7 0
12 -5 12 -10 0 -6 16 -42 35 -80 19 -39 35 -74 36 -78 3 -13 17 -47 37 -92 63
-137 190 -493 218 -612 3 -16 11 -28 18 -29 6 0 3747 -1 8313 -2 5528 -1 8304
1 8306 8 2 6 3 642 3 1415 l-1 1405 -8837 1 -8837 1 6 -36z"/>
<path d="M1410 7140 c-238 -6 -221 0 -206 -70 29 -143 50 -419 50 -665 0 -161
-10 -376 -18 -421 -2 -11 -7 -54 -10 -96 -4 -41 -9 -86 -12 -99 -2 -13 -7 -42
-9 -64 -12 -100 -15 -121 -20 -145 -6 -26 -7 -35 -21 -110 -4 -25 -8 -47 -9
-50 -1 -3 -5 -25 -9 -50 -14 -76 -15 -81 -32 -154 -9 -39 -18 -78 -21 -86 -3
-8 -7 -26 -9 -40 -2 -14 -6 -36 -10 -50 -8 -29 -7 -24 -22 -74 -6 -22 -9 -43
-6 -48 3 -4 0 -8 -7 -8 -7 0 -10 -2 -7 -5 5 -5 -14 -77 -59 -220 -8 -27 -15
-58 -16 -67 -1 -10 -6 -18 -11 -18 -5 0 -7 -3 -4 -6 4 -3 -14 -65 -38 -137
-24 -72 -44 -135 -44 -139 0 -4 1910 -8 4245 -8 l4245 0 0 23 c3 146 0 2800
-3 2803 -6 6 -7678 10 -7937 4z"/>
</g>
</svg>
